<svg width="56" height="56" viewBox="0 0 56 56" fill="none" xmlns="http://www.w3.org/2000/svg">
<path d="M28.3501 45.15C27.3934 45.15 26.6001 44.3567 26.6001 43.4V38.5C26.6001 37.5433 27.3934 36.75 28.3501 36.75C29.3068 36.75 30.1001 37.5433 30.1001 38.5V43.4C30.1001 44.3567 29.3068 45.15 28.3501 45.15Z" fill="#D41773"/>
<path d="M41.7664 53.0833H14.9331V48.9999C14.9331 45.4533 17.8031 42.5833 21.3498 42.5833H35.3498C38.8964 42.5833 41.7664 45.4533 41.7664 48.9999V53.0833ZM18.4331 49.5833H38.2664V48.9999C38.2664 47.3899 36.9598 46.0833 35.3498 46.0833H21.3498C19.7398 46.0833 18.4331 47.3899 18.4331 48.9999V49.5833Z" fill="#D41773"/>
<path d="M42.3501 53.0833H14.3501C13.3934 53.0833 12.6001 52.2899 12.6001 51.3333C12.6001 50.3766 13.3934 49.5833 14.3501 49.5833H42.3501C43.3068 49.5833 44.1001 50.3766 44.1001 51.3333C44.1001 52.2899 43.3068 53.0833 42.3501 53.0833Z" fill="#D41773"/>
<path d="M43.0032 29.0266C42.5132 29.0266 42.0232 28.8166 41.6732 28.42C41.2298 27.9066 41.1132 27.1833 41.3932 26.5766C42.1865 24.7566 42.5832 22.82 42.5832 20.79V13.79C42.5832 12.9733 42.4432 12.18 42.1632 11.34C42.1398 11.27 42.1165 11.1766 42.0932 11.0833C42.0232 10.7333 41.9998 10.3833 41.9998 10.0566C41.9998 9.09997 42.7932 8.30664 43.7498 8.30664H45.1498C49.3265 8.30664 52.7332 11.8066 52.7332 16.1233C52.7332 19.6933 51.2632 23.2166 48.7198 25.76C48.6732 25.8066 48.5332 25.9233 48.5098 25.9466C47.1332 27.09 45.5698 28.3733 43.4698 28.9566C43.3065 29.0033 43.1665 29.0266 43.0032 29.0266ZM45.9198 11.8766C46.0365 12.5066 46.0832 13.16 46.0832 13.79V20.79C46.0832 21.7466 46.0132 22.6566 45.8732 23.59C46.0132 23.4733 46.1298 23.38 46.2698 23.2633C48.1365 21.3966 49.2332 18.7833 49.2332 16.1233C49.2332 14.0233 47.8098 12.25 45.9198 11.8766Z" fill="#D41773"/>
<path d="M13.0199 28.9332C12.8333 28.9332 12.6699 28.9099 12.4833 28.8399C10.5699 28.2332 8.77327 27.1132 7.27993 25.6199C4.5966 22.6566 3.2666 19.4132 3.2666 15.9832C3.2666 11.7366 6.60327 8.3999 10.8499 8.3999H12.3666C12.9499 8.3999 13.5099 8.70324 13.8366 9.19324C14.1633 9.68324 14.2099 10.3132 13.9766 10.8499C13.6033 11.6899 13.4166 12.6466 13.4166 13.6499V20.6499C13.4166 22.6566 13.8133 24.6166 14.6299 26.4832C14.9099 27.1132 14.7699 27.8366 14.3266 28.3499C13.9766 28.7232 13.5099 28.9332 13.0199 28.9332ZM10.0333 11.9699C8.14327 12.3432 6.7666 13.9766 6.7666 15.9832C6.7666 18.5266 7.79327 20.9766 9.82327 23.2166C9.9166 23.3332 10.0333 23.4266 10.1499 23.5199C9.9866 22.5632 9.9166 21.6066 9.9166 20.6499V13.6499C9.9166 13.0899 9.96327 12.5299 10.0333 11.9699Z" fill="#D41773"/>
<path d="M27.9998 39.0834C18.0365 39.0834 9.9165 30.9634 9.9165 21.0001V14.0001C9.9165 7.88675 14.8865 2.91675 20.9998 2.91675H34.9998C41.1132 2.91675 46.0832 7.88675 46.0832 14.0001V21.0001C46.0832 30.9634 37.9632 39.0834 27.9998 39.0834ZM20.9998 6.41675C16.8232 6.41675 13.4165 9.82342 13.4165 14.0001V21.0001C13.4165 29.0501 19.9498 35.5834 27.9998 35.5834C36.0498 35.5834 42.5832 29.0501 42.5832 21.0001V14.0001C42.5832 9.82342 39.1765 6.41675 34.9998 6.41675H20.9998Z" fill="#D41773"/>
</svg>
