<svg width="240" height="240" viewBox="0 0 240 240" fill="none" xmlns="http://www.w3.org/2000/svg">
<circle cx="120" cy="120" r="120" fill="#F6F7EB"/>
<path d="M107.79 127.333H90.6668C86.6335 127.333 83.3335 130.633 83.3335 134.667V156.667H107.79V127.333Z" stroke="#400723" stroke-width="3" stroke-miterlimit="10" stroke-linecap="round" stroke-linejoin="round"/>
<path d="M124.877 112.667H115.087C111.053 112.667 107.753 115.967 107.753 120V156.667H132.21V120C132.21 115.967 128.947 112.667 124.877 112.667Z" stroke="#400723" stroke-width="3" stroke-miterlimit="10" stroke-linecap="round" stroke-linejoin="round"/>
<path d="M149.333 138.333H132.21V156.667H156.667V145.667C156.667 141.633 153.367 138.333 149.333 138.333Z" stroke="#400723" stroke-width="3" stroke-miterlimit="10" stroke-linecap="round" stroke-linejoin="round"/>
<path d="M121.907 83.5901L123.85 87.4767C124.107 88.0267 124.803 88.5401 125.39 88.6134L128.91 89.2001C131.147 89.5667 131.697 91.2167 130.083 92.7933L127.333 95.5433C126.857 96.02 126.6 96.9 126.747 97.5234L127.517 100.897C128.14 103.573 126.71 104.6 124.363 103.207L121.063 101.263C120.477 100.897 119.487 100.897 118.9 101.263L115.6 103.207C113.253 104.6 111.823 103.573 112.447 100.897L113.217 97.5234C113.363 96.9 113.107 95.9833 112.63 95.5433L109.917 92.83C108.303 91.2167 108.817 89.6033 111.09 89.2367L114.61 88.6501C115.197 88.5401 115.893 88.0268 116.15 87.5134L118.093 83.6267C119.157 81.5 120.843 81.5001 121.907 83.5901Z" stroke="#400723" stroke-width="3" stroke-linecap="round" stroke-linejoin="round"/>
</svg>
