<svg width="448" height="56" viewBox="0 0 448 56" fill="none" xmlns="http://www.w3.org/2000/svg">
<path d="M86.4 40H83.712L80.096 31.776C79.9893 31.5413 79.8507 31.2213 79.68 30.816C79.5307 30.4107 79.36 29.9627 79.168 29.472C78.976 28.9813 78.7733 28.4693 78.56 27.936C78.3467 27.3813 78.144 26.8267 77.952 26.272C77.952 26.8267 77.9413 27.3813 77.92 27.936C77.92 28.4693 77.9093 28.9813 77.888 29.472C77.8667 29.9413 77.8453 30.368 77.824 30.752C77.824 31.1147 77.824 31.4027 77.824 31.616L77.504 40H73.92L75.2 18.272H78.176L83.648 31.84C83.84 32.3307 84.0533 32.864 84.288 33.44C84.544 34.016 84.7787 34.5813 84.992 35.136C85.2053 34.5813 85.4293 34.0267 85.664 33.472C85.8987 32.896 86.1227 32.352 86.336 31.84L91.84 18.272H94.752L96.032 40H92.48L92.128 31.712C92.1067 31.1787 92.0747 30.4213 92.032 29.44C92.0107 28.4373 91.9893 27.424 91.968 26.4C91.776 26.9333 91.5733 27.4667 91.36 28C91.168 28.5333 90.9867 29.0347 90.816 29.504C90.6453 29.9733 90.4853 30.4 90.336 30.784C90.1867 31.168 90.0693 31.4667 89.984 31.68L86.4 40ZM112.694 32.288C112.694 33.568 112.769 34.6453 112.918 35.52C113.089 36.3733 113.27 37.0667 113.462 37.6C113.697 38.24 113.953 38.7413 114.23 39.104L111.382 40.256C111.105 39.9787 110.849 39.648 110.614 39.264C110.422 38.9227 110.241 38.5173 110.07 38.048C109.899 37.5573 109.793 36.9813 109.75 36.32C109.387 37.6 108.801 38.5707 107.99 39.232C107.201 39.872 106.123 40.192 104.758 40.192C103.755 40.192 102.881 40.0107 102.134 39.648C101.409 39.264 100.801 38.7307 100.31 38.048C99.8193 37.344 99.4567 36.5013 99.222 35.52C98.9873 34.5387 98.87 33.4507 98.87 32.256C98.87 31.04 99.0513 29.92 99.414 28.896C99.798 27.8507 100.321 26.9547 100.982 26.208C101.665 25.4613 102.475 24.8747 103.414 24.448C104.353 24.0213 105.387 23.808 106.518 23.808C107.158 23.808 107.819 23.8613 108.502 23.968C109.206 24.0533 109.857 24.1493 110.454 24.256C111.051 24.3627 111.553 24.4693 111.958 24.576C112.385 24.6613 112.63 24.7147 112.694 24.736V32.288ZM105.366 37.632C105.899 37.632 106.39 37.4507 106.838 37.088C107.286 36.7253 107.67 36.256 107.99 35.68C108.331 35.0827 108.587 34.4107 108.758 33.664C108.95 32.896 109.046 32.1173 109.046 31.328V26.72C108.833 26.656 108.513 26.5813 108.086 26.496C107.659 26.4107 107.275 26.368 106.934 26.368C106.123 26.368 105.451 26.5067 104.918 26.784C104.406 27.0613 103.99 27.4453 103.67 27.936C103.35 28.4267 103.126 29.0133 102.998 29.696C102.87 30.3787 102.806 31.1253 102.806 31.936C102.806 32.6827 102.827 33.3973 102.87 34.08C102.913 34.7627 103.019 35.3707 103.19 35.904C103.382 36.4373 103.649 36.864 103.99 37.184C104.331 37.4827 104.79 37.632 105.366 37.632ZM128.538 40.256C128.496 40.2347 128.4 40.1387 128.25 39.968C128.101 39.776 127.93 39.52 127.738 39.2C127.568 38.88 127.397 38.4853 127.226 38.016C127.056 37.5253 126.949 36.96 126.906 36.32C126.544 37.6 125.957 38.5707 125.146 39.232C124.357 39.872 123.28 40.192 121.914 40.192C120.912 40.192 120.037 40.0107 119.29 39.648C118.565 39.264 117.957 38.7307 117.466 38.048C116.976 37.344 116.613 36.5013 116.378 35.52C116.144 34.5387 116.026 33.4507 116.026 32.256C116.026 31.04 116.208 29.92 116.57 28.896C116.954 27.8507 117.477 26.9547 118.138 26.208C118.821 25.4613 119.632 24.8747 120.57 24.448C121.509 24.0213 122.544 23.808 123.674 23.808C124.058 23.808 124.464 23.8293 124.89 23.872C125.338 23.9147 125.776 23.968 126.202 24.032V16.8L129.85 17.44V32.288C129.85 33.568 129.925 34.6347 130.074 35.488C130.224 36.32 130.394 37.0027 130.586 37.536C130.778 38.048 130.949 38.4213 131.098 38.656C131.269 38.8907 131.365 39.04 131.386 39.104L128.538 40.256ZM122.522 37.6C123.056 37.6 123.546 37.4187 123.994 37.056C124.442 36.6933 124.826 36.224 125.146 35.648C125.488 35.0507 125.744 34.3787 125.914 33.632C126.106 32.8853 126.202 32.1173 126.202 31.328V26.72C125.989 26.656 125.669 26.5813 125.242 26.496C124.816 26.4107 124.432 26.368 124.09 26.368C123.28 26.368 122.608 26.5067 122.074 26.784C121.562 27.0613 121.146 27.4453 120.826 27.936C120.506 28.4267 120.282 29.0133 120.154 29.696C120.026 30.3787 119.962 31.1253 119.962 31.936C119.962 32.6827 119.984 33.3973 120.026 34.08C120.069 34.7627 120.176 35.3707 120.346 35.904C120.538 36.416 120.805 36.832 121.146 37.152C121.488 37.4507 121.946 37.6 122.522 37.6ZM133.183 32.416C133.183 30.9867 133.375 29.728 133.759 28.64C134.164 27.552 134.708 26.6453 135.391 25.92C136.095 25.1733 136.916 24.6187 137.855 24.256C138.793 23.872 139.807 23.68 140.895 23.68C141.855 23.68 142.665 23.7973 143.327 24.032C144.009 24.2667 144.564 24.5867 144.991 24.992C145.417 25.3973 145.727 25.8773 145.919 26.432C146.132 26.9867 146.239 27.584 146.239 28.224C146.239 28.992 146.025 29.728 145.599 30.432C145.172 31.1147 144.553 31.7227 143.743 32.256C142.953 32.768 141.993 33.184 140.863 33.504C139.732 33.8027 138.463 33.9627 137.055 33.984C137.119 34.4747 137.215 34.944 137.343 35.392C137.492 35.8187 137.695 36.2027 137.951 36.544C138.228 36.864 138.58 37.12 139.007 37.312C139.433 37.504 139.967 37.6 140.607 37.6C141.076 37.6 141.577 37.5467 142.111 37.44C142.644 37.3333 143.135 37.2053 143.583 37.056C144.116 36.8853 144.639 36.6933 145.151 36.48L146.111 38.752C145.556 39.0293 144.959 39.2747 144.319 39.488C143.764 39.68 143.124 39.8507 142.399 40C141.673 40.1493 140.905 40.224 140.095 40.224C138.857 40.224 137.801 40.0427 136.927 39.68C136.052 39.296 135.337 38.7627 134.783 38.08C134.228 37.3973 133.823 36.576 133.567 35.616C133.311 34.656 133.183 33.5893 133.183 32.416ZM140.607 26.176C139.903 26.176 139.316 26.3467 138.847 26.688C138.399 27.008 138.036 27.4347 137.759 27.968C137.481 28.48 137.279 29.0667 137.151 29.728C137.044 30.368 136.98 31.0187 136.959 31.68C137.983 31.6373 138.847 31.5093 139.551 31.296C140.276 31.0613 140.863 30.784 141.311 30.464C141.759 30.1227 142.079 29.76 142.271 29.376C142.484 28.992 142.591 28.608 142.591 28.224C142.591 27.6053 142.409 27.1147 142.047 26.752C141.684 26.368 141.204 26.176 140.607 26.176ZM169.488 22.688C168.976 22.1333 168.432 21.7173 167.856 21.44C167.301 21.1413 166.65 20.992 165.904 20.992C164.986 20.992 164.208 21.2053 163.568 21.632C162.949 22.0373 162.448 22.6133 162.064 23.36C161.68 24.0853 161.402 24.9387 161.232 25.92C161.061 26.9013 160.976 27.9573 160.976 29.088C160.976 30.2187 161.05 31.2747 161.2 32.256C161.37 33.2373 161.648 34.1013 162.032 34.848C162.437 35.5947 162.97 36.1813 163.632 36.608C164.314 37.0347 165.168 37.248 166.192 37.248C166.682 37.248 167.152 37.2053 167.6 37.12C168.048 37.0347 168.453 36.9493 168.816 36.864C169.2 36.7573 169.509 36.6613 169.744 36.576C170 36.4907 170.16 36.4373 170.224 36.416L171.12 39.104L170.704 39.264C170.426 39.3707 170.032 39.4987 169.52 39.648C169.029 39.776 168.432 39.8933 167.728 40C167.045 40.128 166.288 40.192 165.456 40.192C162.597 40.192 160.442 39.2853 158.992 37.472C157.562 35.6373 156.848 32.96 156.848 29.44C156.848 27.7547 157.04 26.2187 157.424 24.832C157.808 23.424 158.384 22.2187 159.152 21.216C159.941 20.2133 160.922 19.4347 162.096 18.88C163.29 18.3253 164.688 18.048 166.288 18.048C167.568 18.048 168.613 18.2827 169.424 18.752C170.256 19.2213 170.928 19.7547 171.44 20.352L169.488 22.688ZM181.122 27.392C180.738 27.392 180.354 27.488 179.97 27.68C179.586 27.872 179.245 28.1387 178.946 28.48C178.648 28.8 178.402 29.1947 178.21 29.664C178.018 30.1333 177.922 30.656 177.922 31.232V40H174.274V31.936C174.274 30.656 174.189 29.5893 174.018 28.736C173.848 27.8613 173.666 27.1573 173.474 26.624C173.24 26.0053 172.984 25.504 172.706 25.12L175.586 23.968C175.778 24.2027 175.981 24.4907 176.194 24.832C176.365 25.1307 176.536 25.4827 176.706 25.888C176.877 26.2933 177.016 26.7733 177.122 27.328C177.549 26.0907 178.168 25.2053 178.978 24.672C179.789 24.1173 180.706 23.84 181.73 23.84C182.221 23.84 182.68 23.904 183.106 24.032C183.533 24.1387 183.736 24.192 183.714 24.192L182.69 27.744C182.712 27.744 182.584 27.6907 182.306 27.584C182.05 27.456 181.656 27.392 181.122 27.392ZM183.87 32.416C183.87 30.9867 184.062 29.728 184.446 28.64C184.851 27.552 185.395 26.6453 186.078 25.92C186.782 25.1733 187.603 24.6187 188.542 24.256C189.481 23.872 190.494 23.68 191.582 23.68C192.542 23.68 193.353 23.7973 194.014 24.032C194.697 24.2667 195.251 24.5867 195.678 24.992C196.105 25.3973 196.414 25.8773 196.606 26.432C196.819 26.9867 196.926 27.584 196.926 28.224C196.926 28.992 196.713 29.728 196.286 30.432C195.859 31.1147 195.241 31.7227 194.43 32.256C193.641 32.768 192.681 33.184 191.55 33.504C190.419 33.8027 189.15 33.9627 187.742 33.984C187.806 34.4747 187.902 34.944 188.03 35.392C188.179 35.8187 188.382 36.2027 188.638 36.544C188.915 36.864 189.267 37.12 189.694 37.312C190.121 37.504 190.654 37.6 191.294 37.6C191.763 37.6 192.265 37.5467 192.798 37.44C193.331 37.3333 193.822 37.2053 194.27 37.056C194.803 36.8853 195.326 36.6933 195.838 36.48L196.798 38.752C196.243 39.0293 195.646 39.2747 195.006 39.488C194.451 39.68 193.811 39.8507 193.086 40C192.361 40.1493 191.593 40.224 190.782 40.224C189.545 40.224 188.489 40.0427 187.614 39.68C186.739 39.296 186.025 38.7627 185.47 38.08C184.915 37.3973 184.51 36.576 184.254 35.616C183.998 34.656 183.87 33.5893 183.87 32.416ZM191.294 26.176C190.59 26.176 190.003 26.3467 189.534 26.688C189.086 27.008 188.723 27.4347 188.446 27.968C188.169 28.48 187.966 29.0667 187.838 29.728C187.731 30.368 187.667 31.0187 187.646 31.68C188.67 31.6373 189.534 31.5093 190.238 31.296C190.963 31.0613 191.55 30.784 191.998 30.464C192.446 30.1227 192.766 29.76 192.958 29.376C193.171 28.992 193.278 28.608 193.278 28.224C193.278 27.6053 193.097 27.1147 192.734 26.752C192.371 26.368 191.891 26.176 191.294 26.176ZM212.819 32.288C212.819 33.568 212.894 34.6453 213.043 35.52C213.214 36.3733 213.395 37.0667 213.587 37.6C213.822 38.24 214.078 38.7413 214.355 39.104L211.507 40.256C211.23 39.9787 210.974 39.648 210.739 39.264C210.547 38.9227 210.366 38.5173 210.195 38.048C210.024 37.5573 209.918 36.9813 209.875 36.32C209.512 37.6 208.926 38.5707 208.115 39.232C207.326 39.872 206.248 40.192 204.883 40.192C203.88 40.192 203.006 40.0107 202.259 39.648C201.534 39.264 200.926 38.7307 200.435 38.048C199.944 37.344 199.582 36.5013 199.347 35.52C199.112 34.5387 198.995 33.4507 198.995 32.256C198.995 31.04 199.176 29.92 199.539 28.896C199.923 27.8507 200.446 26.9547 201.107 26.208C201.79 25.4613 202.6 24.8747 203.539 24.448C204.478 24.0213 205.512 23.808 206.643 23.808C207.283 23.808 207.944 23.8613 208.627 23.968C209.331 24.0533 209.982 24.1493 210.579 24.256C211.176 24.3627 211.678 24.4693 212.083 24.576C212.51 24.6613 212.755 24.7147 212.819 24.736V32.288ZM205.491 37.632C206.024 37.632 206.515 37.4507 206.963 37.088C207.411 36.7253 207.795 36.256 208.115 35.68C208.456 35.0827 208.712 34.4107 208.883 33.664C209.075 32.896 209.171 32.1173 209.171 31.328V26.72C208.958 26.656 208.638 26.5813 208.211 26.496C207.784 26.4107 207.4 26.368 207.059 26.368C206.248 26.368 205.576 26.5067 205.043 26.784C204.531 27.0613 204.115 27.4453 203.795 27.936C203.475 28.4267 203.251 29.0133 203.123 29.696C202.995 30.3787 202.931 31.1253 202.931 31.936C202.931 32.6827 202.952 33.3973 202.995 34.08C203.038 34.7627 203.144 35.3707 203.315 35.904C203.507 36.4373 203.774 36.864 204.115 37.184C204.456 37.4827 204.915 37.632 205.491 37.632ZM234.758 40V29.568C234.758 28.672 234.62 27.968 234.342 27.456C234.065 26.9227 233.585 26.656 232.902 26.656C232.497 26.656 232.081 26.7733 231.654 27.008C231.249 27.2213 230.876 27.5413 230.534 27.968C230.193 28.3947 229.916 28.9067 229.702 29.504C229.489 30.1013 229.382 30.7627 229.382 31.488V40H225.766V29.568C225.766 28.672 225.628 27.968 225.35 27.456C225.073 26.9227 224.593 26.656 223.91 26.656C223.484 26.656 223.057 26.784 222.63 27.04C222.225 27.2747 221.852 27.6267 221.51 28.096C221.19 28.5653 220.924 29.1413 220.71 29.824C220.518 30.4853 220.422 31.232 220.422 32.064V40H216.774V31.936C216.774 30.656 216.689 29.5893 216.518 28.736C216.348 27.8613 216.166 27.1573 215.974 26.624C215.74 26.0053 215.484 25.504 215.206 25.12L218.086 23.968C218.3 24.2027 218.513 24.4907 218.726 24.832C218.897 25.1307 219.068 25.504 219.238 25.952C219.409 26.3787 219.548 26.8693 219.654 27.424C220.188 26.144 220.934 25.2267 221.894 24.672C222.876 24.096 223.91 23.808 224.998 23.808C226.086 23.808 226.929 24.0853 227.526 24.64C228.145 25.1947 228.604 25.9093 228.902 26.784C229.478 25.7173 230.214 24.96 231.11 24.512C232.028 24.0427 232.988 23.808 233.99 23.808C234.822 23.808 235.516 23.9467 236.07 24.224C236.646 24.48 237.094 24.8533 237.414 25.344C237.756 25.8133 238.001 26.3893 238.15 27.072C238.3 27.7333 238.374 28.48 238.374 29.312V40H234.758ZM255.385 33.536C255.385 34.176 255.428 34.7627 255.513 35.296C255.62 35.8293 255.727 36.3627 255.833 36.896C255.961 37.408 256.079 37.9307 256.185 38.464C256.292 38.9973 256.345 39.584 256.345 40.224C256.345 42.4853 255.769 44.1707 254.617 45.28C253.465 46.3893 251.908 46.944 249.945 46.944C249.305 46.944 248.665 46.88 248.025 46.752C247.385 46.6453 246.788 46.5173 246.233 46.368C245.7 46.2187 245.241 46.0693 244.857 45.92C244.473 45.7707 244.217 45.664 244.089 45.6L244.985 42.816C245.284 42.944 245.615 43.072 245.977 43.2C246.361 43.3493 246.745 43.488 247.129 43.616C247.535 43.744 247.951 43.8507 248.377 43.936C248.804 44.0213 249.22 44.064 249.625 44.064C250.82 44.064 251.684 43.7013 252.217 42.976C252.751 42.272 253.017 41.3547 253.017 40.224C253.017 39.2 252.804 38.144 252.377 37.056C251.78 38.1867 250.98 38.9973 249.977 39.488C248.996 39.9573 247.961 40.192 246.873 40.192C245.188 40.192 243.983 39.7013 243.257 38.72C242.553 37.7387 242.201 36.3947 242.201 34.688V24.064H245.849V34.592C245.849 35.488 246.009 36.192 246.329 36.704C246.649 37.216 247.193 37.472 247.961 37.472C248.367 37.472 248.793 37.3547 249.241 37.12C249.711 36.8853 250.127 36.5653 250.489 36.16C250.873 35.7333 251.183 35.232 251.417 34.656C251.673 34.0587 251.801 33.4187 251.801 32.736V24.064H255.545L255.385 33.536ZM260.284 36.064C260.305 36.0427 260.476 35.9467 260.796 35.776C261.116 35.584 261.649 35.488 262.396 35.488C263.143 35.488 263.687 35.712 264.028 36.16C264.369 36.608 264.54 37.1733 264.54 37.856C264.54 38.7307 264.412 39.52 264.156 40.224C263.921 40.928 263.601 41.568 263.196 42.144C262.791 42.72 262.321 43.2213 261.788 43.648C261.276 44.0747 260.732 44.4267 260.156 44.704L258.78 42.848C259.612 42.2293 260.167 41.6107 260.444 40.992C260.743 40.3733 260.892 39.776 260.892 39.2C260.892 38.5813 260.796 38.0053 260.604 37.472C260.412 36.9387 260.305 36.4693 260.284 36.064ZM289.025 40H286.337L282.721 31.776C282.614 31.5413 282.476 31.2213 282.305 30.816C282.156 30.4107 281.985 29.9627 281.793 29.472C281.601 28.9813 281.398 28.4693 281.185 27.936C280.972 27.3813 280.769 26.8267 280.577 26.272C280.577 26.8267 280.566 27.3813 280.545 27.936C280.545 28.4693 280.534 28.9813 280.513 29.472C280.492 29.9413 280.47 30.368 280.449 30.752C280.449 31.1147 280.449 31.4027 280.449 31.616L280.129 40H276.545L277.825 18.272H280.801L286.273 31.84C286.465 32.3307 286.678 32.864 286.913 33.44C287.169 34.016 287.404 34.5813 287.617 35.136C287.83 34.5813 288.054 34.0267 288.289 33.472C288.524 32.896 288.748 32.352 288.961 31.84L294.465 18.272H297.377L298.657 40H295.105L294.753 31.712C294.732 31.1787 294.7 30.4213 294.657 29.44C294.636 28.4373 294.614 27.424 294.593 26.4C294.401 26.9333 294.198 27.4667 293.985 28C293.793 28.5333 293.612 29.0347 293.441 29.504C293.27 29.9733 293.11 30.4 292.961 30.784C292.812 31.168 292.694 31.4667 292.609 31.68L289.025 40ZM315.319 32.288C315.319 33.568 315.394 34.6453 315.543 35.52C315.714 36.3733 315.895 37.0667 316.087 37.6C316.322 38.24 316.578 38.7413 316.855 39.104L314.007 40.256C313.73 39.9787 313.474 39.648 313.239 39.264C313.047 38.9227 312.866 38.5173 312.695 38.048C312.524 37.5573 312.418 36.9813 312.375 36.32C312.012 37.6 311.426 38.5707 310.615 39.232C309.826 39.872 308.748 40.192 307.383 40.192C306.38 40.192 305.506 40.0107 304.759 39.648C304.034 39.264 303.426 38.7307 302.935 38.048C302.444 37.344 302.082 36.5013 301.847 35.52C301.612 34.5387 301.495 33.4507 301.495 32.256C301.495 31.04 301.676 29.92 302.039 28.896C302.423 27.8507 302.946 26.9547 303.607 26.208C304.29 25.4613 305.1 24.8747 306.039 24.448C306.978 24.0213 308.012 23.808 309.143 23.808C309.783 23.808 310.444 23.8613 311.127 23.968C311.831 24.0533 312.482 24.1493 313.079 24.256C313.676 24.3627 314.178 24.4693 314.583 24.576C315.01 24.6613 315.255 24.7147 315.319 24.736V32.288ZM307.991 37.632C308.524 37.632 309.015 37.4507 309.463 37.088C309.911 36.7253 310.295 36.256 310.615 35.68C310.956 35.0827 311.212 34.4107 311.383 33.664C311.575 32.896 311.671 32.1173 311.671 31.328V26.72C311.458 26.656 311.138 26.5813 310.711 26.496C310.284 26.4107 309.9 26.368 309.559 26.368C308.748 26.368 308.076 26.5067 307.543 26.784C307.031 27.0613 306.615 27.4453 306.295 27.936C305.975 28.4267 305.751 29.0133 305.623 29.696C305.495 30.3787 305.431 31.1253 305.431 31.936C305.431 32.6827 305.452 33.3973 305.495 34.08C305.538 34.7627 305.644 35.3707 305.815 35.904C306.007 36.4373 306.274 36.864 306.615 37.184C306.956 37.4827 307.415 37.632 307.991 37.632ZM331.163 40.256C331.121 40.2347 331.025 40.1387 330.875 39.968C330.726 39.776 330.555 39.52 330.363 39.2C330.193 38.88 330.022 38.4853 329.851 38.016C329.681 37.5253 329.574 36.96 329.531 36.32C329.169 37.6 328.582 38.5707 327.771 39.232C326.982 39.872 325.905 40.192 324.539 40.192C323.537 40.192 322.662 40.0107 321.915 39.648C321.19 39.264 320.582 38.7307 320.091 38.048C319.601 37.344 319.238 36.5013 319.003 35.52C318.769 34.5387 318.651 33.4507 318.651 32.256C318.651 31.04 318.833 29.92 319.195 28.896C319.579 27.8507 320.102 26.9547 320.763 26.208C321.446 25.4613 322.257 24.8747 323.195 24.448C324.134 24.0213 325.169 23.808 326.299 23.808C326.683 23.808 327.089 23.8293 327.515 23.872C327.963 23.9147 328.401 23.968 328.827 24.032V16.8L332.475 17.44V32.288C332.475 33.568 332.55 34.6347 332.699 35.488C332.849 36.32 333.019 37.0027 333.211 37.536C333.403 38.048 333.574 38.4213 333.723 38.656C333.894 38.8907 333.99 39.04 334.011 39.104L331.163 40.256ZM325.147 37.6C325.681 37.6 326.171 37.4187 326.619 37.056C327.067 36.6933 327.451 36.224 327.771 35.648C328.113 35.0507 328.369 34.3787 328.539 33.632C328.731 32.8853 328.827 32.1173 328.827 31.328V26.72C328.614 26.656 328.294 26.5813 327.867 26.496C327.441 26.4107 327.057 26.368 326.715 26.368C325.905 26.368 325.233 26.5067 324.699 26.784C324.187 27.0613 323.771 27.4453 323.451 27.936C323.131 28.4267 322.907 29.0133 322.779 29.696C322.651 30.3787 322.587 31.1253 322.587 31.936C322.587 32.6827 322.609 33.3973 322.651 34.08C322.694 34.7627 322.801 35.3707 322.971 35.904C323.163 36.416 323.43 36.832 323.771 37.152C324.113 37.4507 324.571 37.6 325.147 37.6ZM335.808 32.416C335.808 30.9867 336 29.728 336.384 28.64C336.789 27.552 337.333 26.6453 338.016 25.92C338.72 25.1733 339.541 24.6187 340.48 24.256C341.418 23.872 342.432 23.68 343.52 23.68C344.48 23.68 345.29 23.7973 345.952 24.032C346.634 24.2667 347.189 24.5867 347.616 24.992C348.042 25.3973 348.352 25.8773 348.544 26.432C348.757 26.9867 348.864 27.584 348.864 28.224C348.864 28.992 348.65 29.728 348.224 30.432C347.797 31.1147 347.178 31.7227 346.368 32.256C345.578 32.768 344.618 33.184 343.488 33.504C342.357 33.8027 341.088 33.9627 339.68 33.984C339.744 34.4747 339.84 34.944 339.968 35.392C340.117 35.8187 340.32 36.2027 340.576 36.544C340.853 36.864 341.205 37.12 341.632 37.312C342.058 37.504 342.592 37.6 343.232 37.6C343.701 37.6 344.202 37.5467 344.736 37.44C345.269 37.3333 345.76 37.2053 346.208 37.056C346.741 36.8853 347.264 36.6933 347.776 36.48L348.736 38.752C348.181 39.0293 347.584 39.2747 346.944 39.488C346.389 39.68 345.749 39.8507 345.024 40C344.298 40.1493 343.53 40.224 342.72 40.224C341.482 40.224 340.426 40.0427 339.552 39.68C338.677 39.296 337.962 38.7627 337.408 38.08C336.853 37.3973 336.448 36.576 336.192 35.616C335.936 34.656 335.808 33.5893 335.808 32.416ZM343.232 26.176C342.528 26.176 341.941 26.3467 341.472 26.688C341.024 27.008 340.661 27.4347 340.384 27.968C340.106 28.48 339.904 29.0667 339.776 29.728C339.669 30.368 339.605 31.0187 339.584 31.68C340.608 31.6373 341.472 31.5093 342.176 31.296C342.901 31.0613 343.488 30.784 343.936 30.464C344.384 30.1227 344.704 29.76 344.896 29.376C345.109 28.992 345.216 28.608 345.216 28.224C345.216 27.6053 345.034 27.1147 344.672 26.752C344.309 26.368 343.829 26.176 343.232 26.176ZM372.945 30.144H364.017V40H360.209V18.336H364.017V27.36H372.945V18.336H376.753V40H372.945V30.144ZM393.725 32.288C393.725 33.568 393.8 34.6453 393.949 35.52C394.12 36.3733 394.301 37.0667 394.493 37.6C394.728 38.24 394.984 38.7413 395.261 39.104L392.413 40.256C392.136 39.9787 391.88 39.648 391.645 39.264C391.453 38.9227 391.272 38.5173 391.101 38.048C390.931 37.5573 390.824 36.9813 390.781 36.32C390.419 37.6 389.832 38.5707 389.021 39.232C388.232 39.872 387.155 40.192 385.789 40.192C384.787 40.192 383.912 40.0107 383.165 39.648C382.44 39.264 381.832 38.7307 381.341 38.048C380.851 37.344 380.488 36.5013 380.253 35.52C380.019 34.5387 379.901 33.4507 379.901 32.256C379.901 31.04 380.083 29.92 380.445 28.896C380.829 27.8507 381.352 26.9547 382.013 26.208C382.696 25.4613 383.507 24.8747 384.445 24.448C385.384 24.0213 386.419 23.808 387.549 23.808C388.189 23.808 388.851 23.8613 389.533 23.968C390.237 24.0533 390.888 24.1493 391.485 24.256C392.083 24.3627 392.584 24.4693 392.989 24.576C393.416 24.6613 393.661 24.7147 393.725 24.736V32.288ZM386.397 37.632C386.931 37.632 387.421 37.4507 387.869 37.088C388.317 36.7253 388.701 36.256 389.021 35.68C389.363 35.0827 389.619 34.4107 389.789 33.664C389.981 32.896 390.077 32.1173 390.077 31.328V26.72C389.864 26.656 389.544 26.5813 389.117 26.496C388.691 26.4107 388.307 26.368 387.965 26.368C387.155 26.368 386.483 26.5067 385.949 26.784C385.437 27.0613 385.021 27.4453 384.701 27.936C384.381 28.4267 384.157 29.0133 384.029 29.696C383.901 30.3787 383.837 31.1253 383.837 31.936C383.837 32.6827 383.859 33.3973 383.901 34.08C383.944 34.7627 384.051 35.3707 384.221 35.904C384.413 36.4373 384.68 36.864 385.021 37.184C385.363 37.4827 385.821 37.632 386.397 37.632ZM397.681 47.072V31.936C397.681 30.656 397.595 29.5893 397.424 28.736C397.254 27.8613 397.073 27.1573 396.881 26.624C396.646 26.0053 396.39 25.504 396.113 25.12L398.993 23.968C399.249 24.224 399.483 24.544 399.697 24.928C399.867 25.248 400.038 25.6427 400.209 26.112C400.379 26.56 400.507 27.0933 400.593 27.712C400.955 26.432 401.531 25.4613 402.321 24.8C403.11 24.1387 404.209 23.808 405.617 23.808C406.619 23.808 407.483 24 408.209 24.384C408.955 24.7467 409.563 25.28 410.033 25.984C410.523 26.6667 410.886 27.4987 411.121 28.48C411.355 29.4613 411.472 30.5493 411.472 31.744C411.472 32.96 411.291 34.0907 410.929 35.136C410.566 36.16 410.043 37.0453 409.361 37.792C408.699 38.5387 407.899 39.1253 406.961 39.552C406.022 39.9787 404.977 40.192 403.825 40.192C403.419 40.192 403.003 40.1707 402.577 40.128C402.171 40.0853 401.755 40.0427 401.329 40V46.432L397.681 47.072ZM405.009 26.368C404.475 26.368 403.985 26.5493 403.536 26.912C403.089 27.2747 402.694 27.7547 402.353 28.352C402.033 28.9493 401.777 29.6213 401.585 30.368C401.414 31.1147 401.329 31.8827 401.329 32.672V37.28C401.542 37.344 401.862 37.4187 402.289 37.504C402.715 37.5893 403.089 37.632 403.409 37.632C404.219 37.632 404.891 37.4933 405.425 37.216C405.958 36.9387 406.385 36.5547 406.705 36.064C407.025 35.5733 407.249 34.9867 407.377 34.304C407.505 33.6213 407.569 32.8747 407.569 32.064C407.569 31.3173 407.547 30.6027 407.505 29.92C407.462 29.2373 407.345 28.6293 407.153 28.096C406.982 27.5627 406.726 27.1467 406.385 26.848C406.043 26.528 405.585 26.368 405.009 26.368ZM414.993 47.072V31.936C414.993 30.656 414.908 29.5893 414.737 28.736C414.566 27.8613 414.385 27.1573 414.193 26.624C413.958 26.0053 413.702 25.504 413.425 25.12L416.305 23.968C416.561 24.224 416.796 24.544 417.009 24.928C417.18 25.248 417.35 25.6427 417.521 26.112C417.692 26.56 417.82 27.0933 417.905 27.712C418.268 26.432 418.844 25.4613 419.633 24.8C420.422 24.1387 421.521 23.808 422.929 23.808C423.932 23.808 424.796 24 425.521 24.384C426.268 24.7467 426.876 25.28 427.345 25.984C427.836 26.6667 428.198 27.4987 428.433 28.48C428.668 29.4613 428.785 30.5493 428.785 31.744C428.785 32.96 428.604 34.0907 428.241 35.136C427.878 36.16 427.356 37.0453 426.673 37.792C426.012 38.5387 425.212 39.1253 424.273 39.552C423.334 39.9787 422.289 40.192 421.137 40.192C420.732 40.192 420.316 40.1707 419.889 40.128C419.484 40.0853 419.068 40.0427 418.641 40V46.432L414.993 47.072ZM422.321 26.368C421.788 26.368 421.297 26.5493 420.849 26.912C420.401 27.2747 420.006 27.7547 419.665 28.352C419.345 28.9493 419.089 29.6213 418.897 30.368C418.726 31.1147 418.641 31.8827 418.641 32.672V37.28C418.854 37.344 419.174 37.4187 419.601 37.504C420.028 37.5893 420.401 37.632 420.721 37.632C421.532 37.632 422.204 37.4933 422.737 37.216C423.27 36.9387 423.697 36.5547 424.017 36.064C424.337 35.5733 424.561 34.9867 424.689 34.304C424.817 33.6213 424.881 32.8747 424.881 32.064C424.881 31.3173 424.86 30.6027 424.817 29.92C424.774 29.2373 424.657 28.6293 424.465 28.096C424.294 27.5627 424.038 27.1467 423.697 26.848C423.356 26.528 422.897 26.368 422.321 26.368ZM445.042 33.536C445.042 34.176 445.084 34.7627 445.17 35.296C445.276 35.8293 445.383 36.3627 445.49 36.896C445.618 37.408 445.735 37.9307 445.842 38.464C445.948 38.9973 446.002 39.584 446.002 40.224C446.002 42.4853 445.426 44.1707 444.274 45.28C443.122 46.3893 441.564 46.944 439.602 46.944C438.962 46.944 438.322 46.88 437.682 46.752C437.042 46.6453 436.444 46.5173 435.89 46.368C435.356 46.2187 434.898 46.0693 434.514 45.92C434.13 45.7707 433.874 45.664 433.746 45.6L434.641 42.816C434.94 42.944 435.271 43.072 435.634 43.2C436.018 43.3493 436.402 43.488 436.786 43.616C437.191 43.744 437.607 43.8507 438.034 43.936C438.46 44.0213 438.876 44.064 439.282 44.064C440.476 44.064 441.34 43.7013 441.874 42.976C442.407 42.272 442.674 41.3547 442.674 40.224C442.674 39.2 442.46 38.144 442.034 37.056C441.436 38.1867 440.636 38.9973 439.634 39.488C438.652 39.9573 437.618 40.192 436.53 40.192C434.844 40.192 433.639 39.7013 432.914 38.72C432.21 37.7387 431.858 36.3947 431.858 34.688V24.064H435.506V34.592C435.506 35.488 435.666 36.192 435.986 36.704C436.306 37.216 436.85 37.472 437.618 37.472C438.023 37.472 438.45 37.3547 438.898 37.12C439.367 36.8853 439.783 36.5653 440.146 36.16C440.53 35.7333 440.839 35.232 441.074 34.656C441.33 34.0587 441.458 33.4187 441.458 32.736V24.064H445.202L445.042 33.536Z" fill="#D41773"/>
<path d="M28 56C24.1844 56 20.5932 54.0361 18.517 50.8377C14.8136 51.6233 10.8858 50.501 8.19237 47.8076C5.49898 45.1142 4.32063 41.1864 5.16231 37.483C1.96392 35.4068 0 31.8156 0 28C0 24.1844 1.96392 20.5932 5.16231 18.517C4.37674 14.8136 5.49898 10.8858 8.19237 8.19238C10.8858 5.49899 14.8136 4.32064 18.517 5.16232C20.5932 1.96393 24.1844 0 28 0C31.8156 0 35.4068 1.96393 37.483 5.16232C41.1864 4.37675 45.1142 5.49899 47.8076 8.19238C50.501 10.8858 51.6794 14.8136 50.8377 18.517C54.0361 20.5932 56 24.1844 56 28C56 31.8156 54.0361 35.4068 50.8377 37.483C51.6232 41.1864 50.501 45.1142 47.8076 47.8076C45.6753 49.9399 42.7575 51.1182 39.8397 51.1182C39.0541 51.1182 38.2685 51.0621 37.483 50.8938C35.4068 54.0361 31.8156 56 28 56ZM18.7976 49.491C19.022 49.491 19.2465 49.6032 19.3587 49.7715C21.1543 52.8016 24.4649 54.7094 28 54.7094C31.5351 54.7094 34.8457 52.8016 36.6413 49.7715C36.8096 49.5471 37.0902 49.4349 37.3146 49.491C40.7375 50.3888 44.4409 49.3788 46.9098 46.8537C49.4349 44.3287 50.4449 40.6814 49.5471 37.2585C49.491 36.978 49.6032 36.6974 49.8277 36.5852C52.8577 34.7896 54.7655 31.479 54.7655 27.9439C54.7655 24.4088 52.8577 21.0982 49.8277 19.3026C49.6032 19.1343 49.491 18.8537 49.5471 18.6293C50.4449 15.2064 49.4349 11.503 46.9098 9.03406C44.3848 6.50901 40.7375 5.499 37.3146 6.39679C37.0341 6.4529 36.7535 6.34068 36.6413 6.11623C34.8457 3.08617 31.5351 1.17835 28 1.17835C24.4649 1.17835 21.1543 3.08617 19.3587 6.11623C19.1904 6.34068 18.9098 6.4529 18.6854 6.39679C15.2625 5.499 11.5591 6.50901 9.09017 9.03406C6.56512 11.5591 5.55511 15.2064 6.45291 18.6293C6.50902 18.9098 6.39679 19.1904 6.17235 19.3026C3.14228 21.0982 1.23446 24.4088 1.23446 27.9439C1.23446 31.479 3.14228 34.7896 6.17235 36.5852C6.39679 36.7535 6.50902 37.0341 6.45291 37.2585C5.55511 40.6814 6.56512 44.3848 9.09017 46.8537C11.6152 49.3788 15.2625 50.3888 18.6854 49.491C18.6854 49.491 18.7415 49.491 18.7976 49.491Z" fill="#D41773"/>
<path d="M22.5009 28.1122C25.5309 27.7194 28.561 27.1022 31.4227 26.0361C33.4989 25.3066 35.5189 24.3527 37.3145 23.0621C38.549 22.2204 39.7273 21.2104 40.6251 20.0321C41.2424 19.2465 41.7474 18.2926 41.8596 17.3387C41.9157 16.8337 41.7474 16.2164 41.2424 15.992C40.1762 15.5431 39.2223 17.002 38.7734 17.6753C38.4928 18.0681 38.2684 18.517 38.044 18.9098C37.2023 20.5932 36.7534 22.501 36.3606 24.3527C35.9678 26.2044 35.7434 28 35.575 29.9078C35.1822 34.6212 36.0239 38.6613 38.7173 39.2224C41.3546 39.7836 43.6552 36.9218 44.4407 35.9118C45.1702 35.014 46.8536 35.519 46.3486 37.2024C45.8436 38.7735 42.6452 44.3848 36.8656 43.0381C35.07 42.5892 30.4688 40.5691 31.4788 31.0862C31.7033 29.01 31.8716 26.99 32.2644 24.9138C32.8816 21.7715 33.8916 18.5731 36.0239 16.1042C37.2023 14.7575 38.7173 13.4669 40.569 13.3547C41.4668 13.2986 42.4207 13.4669 43.1502 14.028C45.0019 15.5431 44.553 18.4048 43.7113 20.3126C43.1502 21.5471 42.3646 22.6693 41.4107 23.6794C40.1762 25.026 38.7173 26.0922 37.1462 27.0461C35.07 28.2806 32.8255 29.2906 30.581 30.0761C29.2343 30.525 27.8315 30.9739 26.4287 31.3106C25.6431 31.4789 24.9137 31.6473 24.1281 31.8156C23.7353 31.8717 23.3426 31.984 22.8937 32.0401C22.7814 32.0401 21.6592 32.2084 21.6592 32.2645C21.7714 32.3206 22.557 28.1683 22.5009 28.1122Z" fill="#D41773"/>
<path d="M27.1021 22.3326C26.9899 19.5269 26.3166 18.0119 25.2504 16.7213C23.7354 14.8696 21.7714 14.1963 20.2564 14.3085C17.2825 14.4769 14.9258 16.4969 14.0841 19.2464C11.1101 20.0881 9.48288 22.1081 8.92175 24.1843C8.52897 25.6432 8.58508 28.6732 11.7835 30.9738C14.4208 32.8256 18.8536 32.7694 21.7715 32.3205C20.8737 36.4728 19.9759 40.5129 19.9759 40.569C19.9197 40.7935 19.6392 41.8035 20.3125 42.5891C20.9859 43.3185 21.8837 43.2624 21.9398 43.2624C23.567 43.038 23.7354 41.4668 23.7354 41.4668L26.5971 28.2243C27.046 25.9237 27.1582 24.1281 27.1021 22.3326ZM23.062 25.0821C22.9498 25.8676 22.7815 26.6532 22.4448 28.1121C22.4448 28.1121 20.8176 28.4488 19.3586 28.6171C18.1242 28.7294 16.8897 28.6732 15.8236 28.5049C14.4207 28.2805 13.6352 27.8877 12.9618 27.2704C12.2324 26.5971 11.8396 25.7554 11.8396 24.9137C11.8396 24.1843 12.1201 23.2865 13.2985 22.4448C14.533 21.547 16.2163 21.6031 16.2163 21.6031C16.2163 21.6031 16.2725 19.9197 17.2264 18.7414C18.1242 17.6191 19.0781 17.3947 19.8075 17.4508C20.6492 17.4508 21.4909 17.8997 22.1081 18.6853C22.6693 19.4147 23.062 20.2564 23.1743 21.6592C23.2304 22.6692 23.2304 23.9037 23.062 25.0821Z" fill="#D41773"/>
</svg>
