<svg width="240" height="240" viewBox="0 0 240 240" fill="none" xmlns="http://www.w3.org/2000/svg">
<circle cx="120" cy="120" r="120" fill="#F6F7EB"/>
<path d="M145.667 109C145.667 114.317 144.09 119.193 141.377 123.263C137.417 129.13 131.147 133.273 123.85 134.337C122.603 134.557 121.32 134.667 120 134.667C118.68 134.667 117.397 134.557 116.15 134.337C108.853 133.273 102.583 129.13 98.6235 123.263C95.9102 119.193 94.3335 114.317 94.3335 109C94.3335 94.8099 105.81 83.3333 120 83.3333C134.19 83.3333 145.667 94.8099 145.667 109Z" stroke="#400723" stroke-width="3" stroke-linecap="round" stroke-linejoin="round"/>
<path d="M153.917 143.723L147.867 145.153C146.51 145.483 145.447 146.51 145.153 147.867L143.87 153.257C143.173 156.19 139.433 157.07 137.49 154.76L120 134.667L102.51 154.797C100.567 157.107 96.8266 156.227 96.13 153.293L94.8466 147.903C94.5166 146.547 93.4533 145.483 92.1333 145.19L86.0833 143.76C83.2966 143.1 82.3066 139.617 84.3233 137.6L98.6233 123.3C102.583 129.167 108.853 133.31 116.15 134.373C117.397 134.593 118.68 134.703 120 134.703C121.32 134.703 122.603 134.593 123.85 134.373C131.147 133.31 137.417 129.167 141.377 123.3L155.677 137.6C157.693 139.58 156.703 143.063 153.917 143.723Z" stroke="#400723" stroke-width="3" stroke-linecap="round" stroke-linejoin="round"/>
<path d="M122.127 97.9267L124.29 102.253C124.583 102.84 125.353 103.427 126.05 103.537L129.973 104.197C132.467 104.6 133.053 106.433 131.257 108.23L128.213 111.273C127.7 111.787 127.407 112.777 127.59 113.51L128.47 117.287C129.167 120.257 127.59 121.43 124.95 119.853L121.283 117.69C120.623 117.287 119.523 117.287 118.863 117.69L115.197 119.853C112.557 121.393 110.98 120.257 111.677 117.287L112.557 113.51C112.703 112.813 112.447 111.787 111.933 111.273L108.89 108.23C107.093 106.433 107.68 104.637 110.173 104.197L114.097 103.537C114.757 103.427 115.527 102.84 115.82 102.253L117.983 97.9267C119.047 95.5801 120.953 95.5801 122.127 97.9267Z" stroke="#400723" stroke-width="3" stroke-linecap="round" stroke-linejoin="round"/>
</svg>
