<svg width="56" height="56" viewBox="0 0 56 56" fill="none" xmlns="http://www.w3.org/2000/svg">
<path d="M34.9998 53.0834H20.9998C8.32984 53.0834 2.9165 47.6701 2.9165 35.0001V21.0001C2.9165 8.33008 8.32984 2.91675 20.9998 2.91675H34.9998C47.6698 2.91675 53.0832 8.33008 53.0832 21.0001V35.0001C53.0832 47.6701 47.6698 53.0834 34.9998 53.0834ZM20.9998 6.41675C10.2432 6.41675 6.4165 10.2434 6.4165 21.0001V35.0001C6.4165 45.7568 10.2432 49.5834 20.9998 49.5834H34.9998C45.7565 49.5834 49.5832 45.7568 49.5832 35.0001V21.0001C49.5832 10.2434 45.7565 6.41675 34.9998 6.41675H20.9998Z" fill="#D41773"/>
<path d="M36.1665 24.5C33.2732 24.5 30.9165 22.1433 30.9165 19.25C30.9165 16.3567 33.2732 14 36.1665 14C39.0598 14 41.4165 16.3567 41.4165 19.25C41.4165 22.1433 39.0598 24.5 36.1665 24.5ZM36.1665 17.5C35.2098 17.5 34.4165 18.2933 34.4165 19.25C34.4165 20.2067 35.2098 21 36.1665 21C37.1232 21 37.9165 20.2067 37.9165 19.25C37.9165 18.2933 37.1232 17.5 36.1665 17.5Z" fill="#D41773"/>
<path d="M19.8335 24.5C16.9402 24.5 14.5835 22.1433 14.5835 19.25C14.5835 16.3567 16.9402 14 19.8335 14C22.7268 14 25.0835 16.3567 25.0835 19.25C25.0835 22.1433 22.7268 24.5 19.8335 24.5ZM19.8335 17.5C18.8768 17.5 18.0835 18.2933 18.0835 19.25C18.0835 20.2067 18.8768 21 19.8335 21C20.7902 21 21.5835 20.2067 21.5835 19.25C21.5835 18.2933 20.7902 17.5 19.8335 17.5Z" fill="#D41773"/>
<path d="M28 45.3834C21.2333 45.3834 15.75 39.8768 15.75 33.1334C15.75 31.0101 17.4767 29.2834 19.6 29.2834H36.4C38.5233 29.2834 40.25 31.0101 40.25 33.1334C40.25 39.8768 34.7667 45.3834 28 45.3834ZM19.6 32.7834C19.4133 32.7834 19.25 32.9468 19.25 33.1334C19.25 37.9634 23.17 41.8834 28 41.8834C32.83 41.8834 36.75 37.9634 36.75 33.1334C36.75 32.9468 36.5867 32.7834 36.4 32.7834H19.6Z" fill="#D41773"/>
</svg>
