<svg width="56" height="56" viewBox="0 0 56 56" fill="none" xmlns="http://www.w3.org/2000/svg">
<path d="M34.3001 53.0833H21.7001C10.1734 53.0833 5.27344 48.1599 5.27344 36.6566V26.1799C5.27344 25.2233 6.06677 24.4299 7.02344 24.4299C7.9801 24.4299 8.77344 25.2233 8.77344 26.1799V36.6566C8.77344 46.1999 12.1568 49.5833 21.7001 49.5833H34.2768C43.8201 49.5833 47.2034 46.1999 47.2034 36.6566V26.1799C47.2034 25.2233 47.9968 24.4299 48.9534 24.4299C49.9101 24.4299 50.7034 25.2233 50.7034 26.1799V36.6566C50.7268 48.1599 45.8034 53.0833 34.3001 53.0833Z" fill="#D41773"/>
<path d="M27.9999 29.7501C25.4333 29.7501 23.0999 28.7467 21.4433 26.9034C19.7866 25.0601 19.0166 22.6567 19.2733 20.0901L20.8366 4.50341C20.9299 3.61675 21.6766 2.91675 22.5866 2.91675H33.4833C34.3933 2.91675 35.1399 3.59341 35.2333 4.50341L36.7966 20.0901C37.0533 22.6567 36.2833 25.0601 34.6266 26.9034C32.8999 28.7467 30.5666 29.7501 27.9999 29.7501ZM24.1499 6.41675L22.7499 20.4401C22.5866 22.0034 23.0533 23.4734 24.0333 24.5468C26.0166 26.7401 29.9833 26.7401 31.9666 24.5468C32.9466 23.4501 33.4133 21.9801 33.2499 20.4401L31.8499 6.41675H24.1499Z" fill="#D41773"/>
<path d="M42.7233 29.7501C37.9866 29.7501 33.7633 25.9234 33.2733 21.2101L31.6399 4.85341C31.5933 4.36341 31.7566 3.87341 32.0833 3.50008C32.4099 3.12675 32.8766 2.91675 33.3899 2.91675H40.5066C47.3666 2.91675 50.5633 5.78675 51.5199 12.8334L52.1733 19.3201C52.4533 22.0734 51.6133 24.6868 49.8166 26.6701C48.0199 28.6534 45.4999 29.7501 42.7233 29.7501ZM35.3266 6.41675L36.7733 20.8601C37.0766 23.7767 39.7833 26.2501 42.7233 26.2501C44.4966 26.2501 46.0833 25.5734 47.2266 24.3368C48.3466 23.1001 48.8599 21.4434 48.6966 19.6701L48.0433 13.2534C47.3199 7.98008 45.6166 6.41675 40.5066 6.41675H35.3266Z" fill="#D41773"/>
<path d="M13.16 29.7501C10.3834 29.7501 7.86338 28.6534 6.06672 26.6701C4.27005 24.6868 3.43005 22.0734 3.71005 19.3201L4.34005 12.9034C5.32005 5.78675 8.51672 2.91675 15.3767 2.91675H22.4934C22.9834 2.91675 23.45 3.12675 23.8 3.50008C24.15 3.87341 24.29 4.36341 24.2434 4.85341L22.61 21.2101C22.12 25.9234 17.8967 29.7501 13.16 29.7501ZM15.3767 6.41675C10.2667 6.41675 8.56338 7.95675 7.81672 13.3001L7.18672 19.6701C7.00005 21.4434 7.53672 23.1001 8.65672 24.3368C9.77672 25.5734 11.3634 26.2501 13.16 26.2501C16.1 26.2501 18.83 23.7767 19.11 20.8601L20.5567 6.41675H15.3767Z" fill="#D41773"/>
<path d="M33.8334 53.0834H22.1667C21.2101 53.0834 20.4167 52.2901 20.4167 51.3334V45.5001C20.4167 40.6001 23.1001 37.9167 28.0001 37.9167C32.9001 37.9167 35.5834 40.6001 35.5834 45.5001V51.3334C35.5834 52.2901 34.7901 53.0834 33.8334 53.0834ZM23.9167 49.5834H32.0834V45.5001C32.0834 42.5601 30.9401 41.4167 28.0001 41.4167C25.0601 41.4167 23.9167 42.5601 23.9167 45.5001V49.5834Z" fill="#D41773"/>
</svg>
